<?xml version="1.0" encoding="UTF-8" standalone="no"?>
<!-- Created with Inkscape (http://www.inkscape.org/) -->

<svg
   width="274.64624mm"
   height="43.902821mm"
   viewBox="0 0 274.64624 43.902821"
   version="1.1"
   id="svg1"
   xml:space="preserve"
   sodipodi:docname="logo_side_text_blue.svg"
   inkscape:version="1.3.2 (091e20e, 2023-11-25, custom)"
   xmlns:inkscape="http://www.inkscape.org/namespaces/inkscape"
   xmlns:sodipodi="http://sodipodi.sourceforge.net/DTD/sodipodi-0.dtd"
   xmlns:xlink="http://www.w3.org/1999/xlink"
   xmlns="http://www.w3.org/2000/svg"
   xmlns:svg="http://www.w3.org/2000/svg"><sodipodi:namedview
     id="namedview1"
     pagecolor="#ffffff"
     bordercolor="#000000"
     borderopacity="0.25"
     inkscape:showpageshadow="2"
     inkscape:pageopacity="0.0"
     inkscape:pagecheckerboard="0"
     inkscape:deskcolor="#d1d1d1"
     inkscape:document-units="mm"
     inkscape:zoom="1.1955304"
     inkscape:cx="519.01652"
     inkscape:cy="83.226661"
     inkscape:window-width="1920"
     inkscape:window-height="991"
     inkscape:window-x="-9"
     inkscape:window-y="-9"
     inkscape:window-maximized="1"
     inkscape:current-layer="layer1" /><defs
     id="defs1"><linearGradient
       id="linearGradient29"
       inkscape:collect="always"><stop
         style="stop-color:#4059ed;stop-opacity:1;"
         offset="0"
         id="stop29" /><stop
         style="stop-color:#4059ed;stop-opacity:1;"
         offset="1"
         id="stop30" /></linearGradient><linearGradient
       inkscape:collect="always"
       xlink:href="#linearGradient29"
       id="linearGradient30"
       x1="66.354645"
       y1="75.041595"
       x2="136.10645"
       y2="75.041595"
       gradientUnits="userSpaceOnUse"
       gradientTransform="matrix(1.4172533,0,0,1.4172533,-125.05336,4.4175819)" /></defs><g
     inkscape:label="Layer 1"
     inkscape:groupmode="layer"
     id="layer1"
     transform="translate(31.012021,-89.167364)"><path
       id="path28"
       style="-inkscape-font-specification:'Century Schoolbook Bold';stroke:#707070;stroke-width:0;stroke-linecap:round"
       d="m 71.901554,93.949823 v 1.59008 h 2.25671 c 0.547059,0 0.94609,0.11364 1.196826,0.34158 0.262134,0.22795 0.393258,0.5812 0.393258,1.05989 v 19.352307 c 0,0.44448 -0.14244,0.78077 -0.427364,1.00872 -0.273532,0.22791 -0.752264,0.3421 -1.436089,0.3421 h -1.983341 v 1.59008 h 12.958899 v -1.59008 h -2.085661 c -0.58125,0 -1.026048,-0.12554 -1.333769,-0.37621 -0.239339,-0.19375 -0.358634,-0.51874 -0.358634,-0.97461 V 96.719163 c 0,-0.3875 0.113636,-0.67803 0.341581,-0.87178 0.227943,-0.20515 0.592521,-0.30748 1.09399,-0.30748 h 2.342493 v -1.59008 z m 100.488436,0 v 1.59008 h 2.0004 c 0.62684,0 1.06546,0.10799 1.31619,0.32453 0.26214,0.20515 0.39326,0.54145 0.39326,1.00873 v 19.335247 c 0,0.45586 -0.12539,0.80915 -0.3762,1.05988 -0.25075,0.25074 -0.62098,0.37621 -1.11105,0.37621 h -2.2226 v 1.59008 h 22.24154 l 0.58136,-9.69346 h -1.53841 c -0.62684,2.82648 -1.52722,4.88382 -2.70113,6.17171 -1.17391,1.28786 -2.43938,1.93167 -3.79563,1.93167 h -3.64112 c -0.88899,0 -1.45307,-0.10283 -1.69241,-0.30799 -0.23934,-0.21654 -0.35915,-0.70659 -0.35915,-1.4702 V 97.061263 c 0,-0.53566 0.12541,-0.92339 0.37621,-1.16272 0.25074,-0.23934 0.68936,-0.35864 1.3162,-0.35864 h 2.18849 v -1.59008 z m -22.45702,3.26337 -6.84403,0.26458 v 1.33945 h 0.80925 c 0.7163,0 1.18766,0.0641 1.41335,0.19172 0.2355,0.11775 0.42177,0.33869 0.55914,0.6625 0.13738,0.32382 0.20568,0.858287 0.20568,1.604027 v 6.2699 c -0.6378,-0.98125 -1.34925,-1.68749 -2.13424,-2.11925 -0.77518,-0.44154 -1.66305,-0.66249 -2.66392,-0.66249 -1.86435,0 -3.42486,0.70161 -4.68085,2.10478 -1.25599,1.40318 -1.88413,3.30156 -1.88413,5.69578 0,2.16854 0.5945,3.88633 1.78181,5.15214 1.1873,1.26578 2.72246,1.89859 4.60644,1.89859 1.04992,0 1.92331,-0.18626 2.61999,-0.55914 0.70649,-0.37286 1.49141,-1.12414 2.3549,-2.25257 l 0.41237,2.6789 5.66632,-0.17673 v -1.30948 c -0.72611,0 -1.2161,-0.0688 -1.47122,-0.20619 -0.25513,-0.14717 -0.44655,-0.37743 -0.57413,-0.69143 -0.11771,-0.32382 -0.17673,-0.94781 -0.17673,-1.87017 z m -22.35781,0.36793 c -0.66724,0 -1.2364,0.2349 -1.70739,0.7059 -0.47099,0.46118 -0.70642,1.02619 -0.70642,1.69344 0,0.657427 0.23543,1.221397 0.70642,1.692397 0.47099,0.471 1.04015,0.70642 1.70739,0.70642 0.65743,0 1.2214,-0.23024 1.6924,-0.69143 0.47099,-0.47099 0.70694,-1.04014 0.70694,-1.707387 0,-0.66725 -0.23595,-1.23226 -0.70694,-1.69344 -0.471,-0.471 -1.03497,-0.7059 -1.6924,-0.7059 z m 74.33189,0.25529 c -0.65909,0 -1.22147,0.23186 -1.68672,0.69711 -0.46525,0.45557 -0.69763,1.01368 -0.69763,1.672767 0,0.64941 0.23238,1.20648 0.69763,1.67173 0.46525,0.46526 1.02763,0.69815 1.68672,0.69815 0.64943,0 1.20701,-0.22813 1.67225,-0.68368 0.46525,-0.46526 0.69763,-1.0271 0.69763,-1.6862 0,-0.659087 -0.23238,-1.217197 -0.69763,-1.672767 -0.46524,-0.46525 -1.02282,-0.69711 -1.67225,-0.69711 z m -87.84373,6.927217 c -1.53073,0 -2.75234,0.44191 -3.66489,1.32498 -0.91255,0.87332 -1.36839,1.9966 -1.36839,3.37034 0,0.96161 0.24939,1.78585 0.74982,2.47272 0.50043,0.67705 1.24654,1.2074 2.23759,1.59008 0.57893,0.2355 1.66808,0.51438 3.2675,0.83819 1.48167,0.30419 2.3949,0.58929 2.73834,0.85422 0.34343,0.26493 0.51469,0.65196 0.51469,1.1622 0,0.55931 -0.27474,1.04049 -0.82423,1.44281 -0.5495,0.40228 -1.34476,0.60306 -2.38487,0.60306 -2.5316,0 -4.31718,-1.31422 -5.3573,-3.94395 h -1.22163 l 0.2651,5.21002 h 1.11828 l 1.0449,-1.2361 c 0.70649,0.4808 1.38429,0.81452 2.03191,1.00097 0.65743,0.19623 1.38854,0.29404 2.19315,0.29404 1.66811,0 3.01183,-0.43151 4.03231,-1.29501 1.0303,-0.8733 1.54565,-1.94847 1.54565,-3.22409 0,-1.01068 -0.27009,-1.89338 -0.80977,-2.64894 -0.52987,-0.75554 -1.27081,-1.3247 -2.22261,-1.70738 -0.50043,-0.20607 -1.50628,-0.46114 -3.01738,-0.76533 -1.66811,-0.33362 -2.68793,-0.64252 -3.0608,-0.92708 -0.37287,-0.27472 -0.55965,-0.67677 -0.55965,-1.20664 0,-0.53968 0.24059,-0.98671 0.7214,-1.33997 0.48081,-0.35323 1.18241,-0.5302 2.10478,-0.5302 1.06955,0 1.97709,0.2556 2.72283,0.76584 0.75555,0.50044 1.44733,1.37383 2.07533,2.62 h 1.19165 l -0.29403,-4.70979 h -0.89762 l -0.97152,1.1622 c -0.66724,-0.43174 -1.29952,-0.73547 -1.89808,-0.91209 -0.58874,-0.17662 -1.25671,-0.2651 -2.00246,-0.2651 z m 48.11592,0 c -2.04098,0 -3.76345,0.7218 -5.1666,2.16421 -1.40318,1.44244 -2.10479,3.23735 -2.10479,5.38623 0,2.14892 0.69644,3.91018 2.0898,5.28392 1.39335,1.37375 3.21877,2.06086 5.47563,2.06086 1.55035,0 2.86045,-0.31356 3.93,-0.94155 1.07936,-0.63782 2.03553,-1.69282 2.86959,-3.16466 l -1.07384,-0.6625 c -0.7948,1.23637 -1.57039,2.09009 -2.32595,2.56109 -0.75555,0.471 -1.55495,0.7059 -2.39882,0.7059 -1.17749,0 -2.14454,-0.45585 -2.90009,-1.36839 -0.74576,-0.92238 -1.13332,-2.34991 -1.16272,-4.28295 h 9.67022 c -0.0295,-1.77601 -0.32851,-3.21858 -0.89762,-4.32738 -0.55933,-1.11862 -1.3494,-1.9677 -2.36989,-2.54661 -1.01066,-0.57893 -2.22195,-0.86817 -3.63492,-0.86817 z m 74.44714,0.16743 c -2.01609,0 -3.71699,0.71304 -5.10305,2.13786 -1.38606,1.42484 -2.07894,3.19791 -2.07894,5.3206 0,2.12271 0.68759,3.86234 2.06396,5.21932 1.37636,1.35699 3.17965,2.03605 5.40897,2.03605 1.53145,0 2.82544,-0.31036 3.88193,-0.93069 1.0662,-0.63002 2.01109,-1.6725 2.83497,-3.12642 l -1.06143,-0.65371 c -0.78511,1.22128 -1.55069,2.06431 -2.29702,2.52956 -0.74633,0.46524 -1.5363,0.69815 -2.36988,0.69815 -1.16312,0 -2.11809,-0.45093 -2.86443,-1.35237 -0.73668,-0.91111 -1.11922,-2.32127 -1.14825,-4.23075 h 9.55136 c -0.0291,-1.75434 -0.32459,-3.17888 -0.88677,-4.27416 -0.55249,-1.10497 -1.33239,-1.94428 -2.34042,-2.51613 -0.99833,-0.57187 -2.19525,-0.85731 -3.591,-0.85731 z m -137.01696,0.0532 c -1.01067,0 -1.97202,0.27061 -2.88457,0.81029 -0.91256,0.53969 -1.771459,1.35409 -2.576075,2.44326 -0.107931,-1.16767 -0.264712,-2.17353 -0.470772,-3.01739 l -5.739702,0.30903 v 1.28002 h 0.588078 c 0.520058,0 0.937607,0.14229 1.251603,0.42685 0.323809,0.27476 0.485242,0.6478 0.485242,1.11879 v 8.19795 c 0,0.45138 -0.112801,0.79545 -0.338481,1.03095 -0.215872,0.23549 -0.539771,0.35243 -0.971517,0.35243 h -1.118278 v 1.36943 h 8.595342 v -1.36943 h -1.0449 c -0.363057,0 -0.662119,-0.11699 -0.897618,-0.35243 -0.225684,-0.2355 -0.338997,-0.57957 -0.338997,-1.03095 v -4.60643 c 0,-1.48164 0.323896,-2.6055 0.971517,-3.37086 0.647618,-0.77518 1.487378,-1.16323 2.517678,-1.16323 0.75555,0 1.36351,0.27578 1.82469,0.82527 0.471,0.53968 0.70694,1.31942 0.70694,2.33991 v 5.97534 c 0,0.45138 -0.11331,0.79545 -0.339,1.03095 -0.22568,0.23549 -0.56925,0.35243 -1.03043,0.35243 h -0.86816 v 1.36943 h 8.28631 v -1.36943 h -0.76481 c -0.49062,0 -0.84918,-0.1076 -1.07487,-0.32349 -0.22568,-0.21586 -0.33848,-0.56927 -0.33848,-1.05989 v -6.38772 c 0,-1.62886 -0.3922,-2.8991 -1.17719,-3.81165 -0.7948,-0.91256 -1.87981,-1.36943 -3.25355,-1.36943 z m 120.98073,0.16485 c -0.99836,0 -1.94854,0.26685 -2.84996,0.79995 -0.90141,0.53309 -1.74975,1.3374 -2.54454,2.41329 -0.10656,-1.15344 -0.26154,-2.14659 -0.46509,-2.98018 l -5.66994,0.30541 v 1.26452 h 0.58084 c 0.51371,0 0.92593,0.14059 1.2361,0.42168 0.31986,0.27139 0.48008,0.6396 0.48008,1.10484 v 8.09821 c 0,0.44587 -0.11188,0.7854 -0.33487,1.01803 -0.21323,0.23261 -0.53315,0.34882 -0.95963,0.34882 h -1.10484 v 1.35185 h 8.49096 v -1.35185 h -1.03198 c -0.35861,0 -0.65414,-0.11626 -0.88677,-0.34882 -0.22294,-0.23263 -0.33486,-0.57216 -0.33486,-1.01803 v -4.55062 c 0,-1.46359 0.31992,-2.57299 0.95963,-3.329 0.63972,-0.76572 1.46892,-1.14928 2.48667,-1.14928 0.74633,0 1.34641,0.27162 1.80196,0.81442 0.46524,0.53309 0.69814,1.30344 0.69814,2.31148 v 5.903 c 0,0.44587 -0.11086,0.7854 -0.33383,1.01803 -0.22293,0.23261 -0.56246,0.34882 -1.01802,0.34882 h -0.85783 v 1.35185 h 8.18555 v -1.35185 h -0.75603 c -0.48464,0 -0.8385,-0.10661 -1.06143,-0.31988 -0.22293,-0.21324 -0.33487,-0.56233 -0.33487,-1.04697 v -6.30969 c 0,-1.60896 -0.38781,-2.86424 -1.16323,-3.76566 -0.7851,-0.90142 -1.85523,-1.35237 -3.21221,-1.35237 z m -90.67508,0.10025 -6.12211,0.28009 v 1.33893 h 0.61753 c 0.51025,0 0.90762,0.13715 1.19218,0.41186 0.29437,0.27474 0.44183,0.6628 0.44183,1.16324 v 7.97729 c 0,0.55933 -0.10297,0.95151 -0.30902,1.17719 -0.19625,0.22569 -0.53929,0.33848 -1.02991,0.33848 h -0.91261 v 1.36943 h 8.27133 v -1.36943 h -0.92759 c -0.41212,0 -0.72049,-0.0834 -0.92656,-0.25011 -0.19624,-0.17662 -0.29507,-0.42188 -0.29507,-0.73588 z m 74.30347,0.16175 -6.04821,0.27647 v 1.32291 h 0.61081 c 0.50403,0 0.89662,0.13533 1.17771,0.4067 0.29079,0.2714 0.43615,0.65443 0.43615,1.14876 v 7.88066 c 0,0.5525 -0.10183,0.93928 -0.30541,1.1622 -0.19386,0.22293 -0.53338,0.33487 -1.01802,0.33487 h -0.90124 v 1.35185 h 8.17108 v -1.35185 h -0.91623 c -0.40709,0 -0.71215,-0.0823 -0.9157,-0.24702 -0.19386,-0.17448 -0.29094,-0.41744 -0.29094,-0.7276 z m -41.76024,0.69197 c 0.80461,0 1.4674,0.31408 1.98747,0.94207 0.52005,0.61819 0.7798,1.49674 0.7798,2.63498 0,0.56912 -0.0936,0.96184 -0.28009,1.1777 -0.18643,0.21587 -0.49532,0.32298 -0.92707,0.32298 h -4.60696 c 0.0686,-1.69754 0.35327,-2.9683 0.8537,-3.81217 0.51025,-0.84386 1.24135,-1.26556 2.19315,-1.26556 z m 74.44455,0.15142 c 0.7948,0 1.44896,0.30985 1.96267,0.93017 0.51372,0.61064 0.7705,1.4781 0.7705,2.60243 0,0.56217 -0.0923,0.94999 -0.27647,1.16323 -0.18416,0.21324 -0.48923,0.31988 -0.91571,0.31988 h -4.55063 c 0.0678,-1.67684 0.34852,-2.93209 0.84285,-3.76566 0.50402,-0.83356 1.2266,-1.25005 2.16679,-1.25005 z m -94.28572,0.40824 c 0.92236,0 1.73678,0.48067 2.44327,1.44229 0.7065,0.9518 1.05988,2.23705 1.05988,3.85609 0,1.74661 -0.4072,3.17931 -1.22163,4.29793 -0.60837,0.85366 -1.41294,1.28106 -2.41381,1.28106 -0.60837,0 -1.15268,-0.17698 -1.63349,-0.5302 -0.47099,-0.36307 -0.8337,-0.9079 -1.08882,-1.63401 -0.25512,-0.73594 -0.38292,-1.84474 -0.38292,-3.32641 0,-1.77605 0.23076,-3.07164 0.69194,-3.88607 0.55931,-1.00086 1.40735,-1.50068 2.54558,-1.50068 z m -71.027702,14.03945 v 0.33745 c 0.211299,0.0597 0.360759,0.11484 0.448035,0.16536 0.08728,0.0459 0.156178,0.11059 0.206706,0.19327 0.05512,0.0781 0.09434,0.19046 0.117305,0.33745 0.02297,0.1424 0.03411,0.3719 0.03411,0.68885 v 5.96036 c 0,0.33991 -0.0159,0.59221 -0.04806,0.75757 -0.02756,0.16537 -0.08957,0.29416 -0.186036,0.38603 -0.09646,0.0873 -0.287264,0.16783 -0.572058,0.24133 v 0.33744 h 3.025139 v -0.33744 c -0.225079,-0.0505 -0.390445,-0.1014 -0.496094,-0.15193 -0.105649,-0.0551 -0.190973,-0.12827 -0.255282,-0.22014 -0.05971,-0.0965 -0.105305,-0.22526 -0.137459,-0.38603 -0.02756,-0.16077 -0.04134,-0.37649 -0.04134,-0.6475 v -2.28772 c 0.280201,0.0184 0.675067,0.0274 1.184941,0.0274 0.454751,0 0.888835,-0.0525 1.302246,-0.15813 0.41341,-0.10565 0.771702,-0.28055 1.074869,-0.524 0.303168,-0.24345 0.537436,-0.55564 0.7028,-0.93689 0.165364,-0.38126 0.248047,-0.81058 0.248047,-1.2883 0,-0.8406 -0.263953,-1.46548 -0.7922,-1.8743 -0.523654,-0.41341 -1.322919,-0.62012 -2.397786,-0.62012 z m 47.012122,0.11731 v 1.33635 h 1.26762 v -1.33635 z m -43.890865,0.48886 c 0.303168,0 0.583542,0.0344 0.840775,0.10335 0.257234,0.0643 0.477721,0.17719 0.661459,0.33796 0.188331,0.16078 0.33515,0.37437 0.4408,0.64079 0.105649,0.26183 0.158646,0.58992 0.158646,0.98496 0,0.51906 -0.08957,0.93723 -0.268717,1.25418 -0.179145,0.31236 -0.438848,0.53761 -0.778764,0.67541 -0.335322,0.13321 -0.762515,0.19947 -1.281575,0.19947 h -0.798918 v -4.16822 c 0.229673,-0.0184 0.571542,-0.0279 1.026294,-0.0279 z m 39.226025,0.51004 c -0.0505,0.41801 -0.0987,0.73708 -0.14469,0.95757 -0.0459,0.21589 -0.11007,0.39768 -0.19275,0.54467 -0.0781,0.1424 -0.18833,0.25953 -0.33073,0.3514 -0.1424,0.0919 -0.32843,0.156 -0.55811,0.19275 v 0.3514 h 1.01958 v 3.82406 c 0,0.74873 0.14469,1.29995 0.43408,1.65364 0.28939,0.3491 0.73036,0.52348 1.32292,0.52348 0.31235,0 0.6134,-0.071 0.90279,-0.21342 0.29398,-0.1424 0.60404,-0.3719 0.93017,-0.68885 l -0.31006,-0.37207 c -0.15618,0.1424 -0.31465,0.25264 -0.47542,0.33073 -0.16077,0.0735 -0.33303,0.11007 -0.51677,0.11007 -0.20211,0 -0.36747,-0.0323 -0.49609,-0.0966 -0.12862,-0.0643 -0.24362,-0.16979 -0.34468,-0.31678 -0.10106,-0.15158 -0.16996,-0.35829 -0.20671,-0.62011 -0.0367,-0.26643 -0.0553,-0.62259 -0.0553,-1.06816 v -3.06596 h 2.2257 v -0.69608 h -2.2257 v -1.70171 z m -30.289103,1.58492 c -0.316948,0 -0.602088,0.0482 -0.854728,0.14469 -0.248047,0.0965 -0.479673,0.23427 -0.695565,0.41342 -0.215892,0.17455 -0.450159,0.4157 -0.702799,0.72347 l -0.09664,-0.0207 0.07596,-1.20613 h -0.420646 l -1.612305,0.0692 v 0.35812 c 0.206706,0.0368 0.365181,0.0829 0.475423,0.13798 0.114837,0.0505 0.200161,0.13057 0.255282,0.24081 0.05512,0.10565 0.08693,0.24822 0.09612,0.42736 0.0092,0.17915 0.01395,0.41554 0.01395,0.70952 v 3.00447 c 0,0.32154 -0.01378,0.55793 -0.04134,0.70952 -0.02756,0.15158 -0.0689,0.26395 -0.124024,0.33744 -0.05512,0.0735 -0.121899,0.13126 -0.199988,0.1726 -0.0735,0.0413 -0.197519,0.0896 -0.37207,0.1447 v 0.33744 h 2.777092 v -0.33744 c -0.234267,-0.0413 -0.411288,-0.0991 -0.530717,-0.1726 -0.114837,-0.0735 -0.197519,-0.18799 -0.248047,-0.34417 -0.05053,-0.16077 -0.07596,-0.45016 -0.07596,-0.86816 v -2.41174 c 0,-0.22049 0.02756,-0.41129 0.08268,-0.57206 0.05971,-0.16077 0.165709,-0.33303 0.317293,-0.51676 0.151584,-0.18374 0.307418,-0.32367 0.468188,-0.42013 0.165365,-0.0965 0.33073,-0.1447 0.496094,-0.1447 0.215892,0 0.386023,0.0573 0.510047,0.17209 0.124023,0.11024 0.241156,0.28938 0.351399,0.53743 h 0.778764 v -1.5844 c -0.215892,-0.0276 -0.45705,-0.0413 -0.72347,-0.0413 z m 4.526856,0 c -0.587962,0 -1.111619,0.12827 -1.570964,0.38551 -0.459345,0.25264 -0.822402,0.64113 -1.088822,1.16478 -0.261827,0.52366 -0.392741,1.16445 -0.392741,1.92237 0,1.10243 0.250172,1.93614 0.750858,2.50114 0.50528,0.5604 1.235643,0.84025 2.191081,0.84025 0.633896,0 1.182989,-0.12827 1.646928,-0.3855 0.463939,-0.26183 0.82223,-0.65457 1.07487,-1.17822 0.25264,-0.52366 0.378788,-1.16709 0.378788,-1.9296 0,-1.07028 -0.252297,-1.89021 -0.757577,-2.4598 -0.505279,-0.57418 -1.249423,-0.86093 -2.232421,-0.86093 z m 15.268317,0 c -0.59255,0 -1.11621,0.14205 -1.57096,0.42685 -0.45475,0.28479 -0.80615,0.68919 -1.0542,1.21284 -0.24345,0.52366 -0.36484,1.12787 -0.36484,1.8123 0,1.10702 0.24116,1.94498 0.72347,2.51457 0.48232,0.565 1.19626,0.84749 2.14251,0.84749 0.35369,0 0.67753,-0.0482 0.97152,-0.14469 0.29398,-0.10106 0.56269,-0.23886 0.80615,-0.41341 0.24804,-0.17455 0.5194,-0.41571 0.81338,-0.72347 l -0.42064,-0.44752 c -0.29858,0.31695 -0.5991,0.54645 -0.90227,0.68885 -0.29858,0.1378 -0.6362,0.2067 -1.01286,0.2067 -0.44557,0 -0.80862,-0.10335 -1.08882,-0.31005 -0.27561,-0.2113 -0.47543,-0.50069 -0.59945,-0.86817 -0.11943,-0.37207 -0.17932,-0.82895 -0.17932,-1.37097 v -0.12403 h 4.34082 c -0.0138,-0.62471 -0.0758,-1.13033 -0.18603,-1.51618 -0.10565,-0.39045 -0.25724,-0.71165 -0.45475,-0.96429 -0.19293,-0.25723 -0.45212,-0.45969 -0.77825,-0.60668 -0.32614,-0.14699 -0.72152,-0.22014 -1.18546,-0.22014 z m 8.05481,0 c -0.31695,0 -0.60157,0.0482 -0.85421,0.14469 -0.24805,0.0965 -0.48019,0.23427 -0.69609,0.41342 -0.21589,0.17455 -0.45016,0.4157 -0.7028,0.72347 l -0.0966,-0.0207 0.076,-1.20613 h -0.42013 l -1.6123,0.0692 v 0.35812 c 0.20671,0.0368 0.36518,0.0829 0.47542,0.13798 0.11484,0.0505 0.19965,0.13057 0.25477,0.24081 0.0551,0.10565 0.0875,0.24822 0.0966,0.42736 0.009,0.17915 0.0134,0.41554 0.0134,0.70952 v 3.00447 c 0,0.32154 -0.0138,0.55793 -0.0413,0.70952 -0.0276,0.15158 -0.0689,0.26395 -0.12403,0.33744 -0.0551,0.0735 -0.12138,0.13126 -0.19947,0.1726 -0.0735,0.0413 -0.19752,0.0896 -0.37207,0.1447 v 0.33744 h 2.77658 v -0.33744 c -0.23427,-0.0413 -0.41129,-0.0991 -0.53072,-0.1726 -0.11484,-0.0735 -0.19752,-0.18799 -0.24805,-0.34417 -0.0505,-0.16077 -0.0754,-0.45016 -0.0754,-0.86816 v -2.41174 c 0,-0.22049 0.0276,-0.41129 0.0827,-0.57206 0.0597,-0.16077 0.16519,-0.33303 0.31678,-0.51676 0.15158,-0.18374 0.30793,-0.32367 0.4687,-0.42013 0.16536,-0.0965 0.33073,-0.1447 0.49609,-0.1447 0.2159,0 0.38551,0.0573 0.50953,0.17209 0.12403,0.11024 0.24116,0.28938 0.3514,0.53743 h 0.77877 v -1.5844 c -0.21589,-0.0276 -0.45705,-0.0413 -0.72347,-0.0413 z m 13.35991,0 c -0.59256,0 -1.11622,0.14205 -1.57097,0.42685 -0.45475,0.28479 -0.80615,0.68919 -1.0542,1.21284 -0.24345,0.52366 -0.36483,1.12787 -0.36483,1.8123 0,1.10702 0.24115,1.94498 0.72347,2.51457 0.48231,0.565 1.19625,0.84749 2.1425,0.84749 0.3537,0 0.67754,-0.0482 0.97152,-0.14469 0.29398,-0.10106 0.5627,-0.23886 0.80615,-0.41341 0.24805,-0.17455 0.51941,-0.41571 0.81339,-0.72347 l -0.42065,-0.44752 c -0.29857,0.31695 -0.5991,0.54645 -0.90227,0.68885 -0.29857,0.1378 -0.63619,0.2067 -1.01286,0.2067 -0.44556,0 -0.80862,-0.10335 -1.08882,-0.31005 -0.27561,-0.2113 -0.47542,-0.50069 -0.59945,-0.86817 -0.11943,-0.37207 -0.17931,-0.82895 -0.17931,-1.37097 v -0.12403 h 4.34082 c -0.0138,-0.62471 -0.0758,-1.13033 -0.18604,-1.51618 -0.10565,-0.39045 -0.25723,-0.71165 -0.45475,-0.96429 -0.19293,-0.25723 -0.45211,-0.45969 -0.77825,-0.60668 -0.32613,-0.14699 -0.72152,-0.22014 -1.18545,-0.22014 z m 6.51846,0 c -0.51906,0 -0.97169,0.0731 -1.35754,0.22014 -0.38585,0.14699 -0.68213,0.36059 -0.88883,0.64079 -0.20212,0.27561 -0.30334,0.60209 -0.30334,0.97875 0,0.30776 0.0715,0.57384 0.21394,0.79892 0.14699,0.22508 0.3468,0.42065 0.59944,0.58601 0.25264,0.16536 0.58762,0.33498 1.00563,0.50953 0.4869,0.2067 0.82716,0.37207 1.02009,0.49609 0.19292,0.11943 0.33498,0.25299 0.42685,0.39998 0.0919,0.14699 0.13797,0.33727 0.13797,0.57154 0,0.20671 -0.0366,0.37896 -0.11007,0.51676 -0.0735,0.13781 -0.1726,0.24805 -0.29662,0.33073 -0.12402,0.0781 -0.26608,0.13586 -0.42685,0.1726 -0.15618,0.0322 -0.31729,0.0481 -0.48266,0.0481 -0.42719,0 -0.76217,-0.0943 -1.00562,-0.28267 -0.24345,-0.19292 -0.42736,-0.50034 -0.55139,-0.92294 h -0.67541 v 1.43971 c 0.34451,0.0919 0.69855,0.16553 1.06144,0.22065 0.36288,0.0597 0.73707,0.0894 1.12292,0.0894 0.36748,0 0.7051,-0.0344 1.01286,-0.10335 0.31236,-0.0689 0.58108,-0.18127 0.80615,-0.33745 0.22508,-0.15617 0.39946,-0.35811 0.52349,-0.60616 0.12402,-0.24805 0.18603,-0.55386 0.18603,-0.91674 0,-0.31235 -0.0731,-0.58107 -0.22014,-0.80615 -0.1424,-0.22508 -0.34221,-0.42226 -0.59945,-0.59221 -0.25264,-0.16996 -0.61357,-0.356 -1.0821,-0.55811 -0.46394,-0.19752 -0.78778,-0.35599 -0.97152,-0.47542 -0.18374,-0.11943 -0.3189,-0.24822 -0.40617,-0.38603 -0.0873,-0.1378 -0.13126,-0.31218 -0.13126,-0.52348 0,-0.29857 0.10812,-0.53284 0.32401,-0.7028 0.22048,-0.17455 0.51464,-0.262 0.88212,-0.262 0.25264,0 0.46623,0.0323 0.64078,0.0966 0.17455,0.0643 0.33039,0.17667 0.46819,0.33745 0.13781,0.15617 0.25758,0.37189 0.35864,0.6475 h 0.66145 v -1.4056 c -0.42719,-0.0873 -0.78335,-0.14452 -1.06815,-0.17208 -0.2802,-0.0322 -0.57171,-0.0481 -0.87488,-0.0481 z m -34.71313,0.007 c -0.18373,0 -0.35811,0.0185 -0.52348,0.0553 -0.16077,0.0368 -0.3309,0.0988 -0.51004,0.18604 -0.17456,0.0873 -0.34417,0.19752 -0.509535,0.33073 -0.165364,0.12861 -0.390617,0.33744 -0.675411,0.62683 l -0.103353,-0.0274 0.0894,-1.12344 h -0.420129 l -1.619023,0.062 v 0.36535 c 0.206706,0.0413 0.353525,0.0827 0.4408,0.12402 0.09187,0.0413 0.162896,0.0917 0.213424,0.15142 0.05512,0.0597 0.09646,0.1355 0.124024,0.22737 0.02756,0.0919 0.04611,0.20901 0.05529,0.3514 0.0092,0.13781 0.01395,0.37207 0.01395,0.7028 v 5.91179 c 0,0.26642 -0.0095,0.48001 -0.02791,0.64078 -0.01837,0.16077 -0.05495,0.28744 -0.110071,0.37931 -0.05512,0.0965 -0.13568,0.16749 -0.241329,0.21342 -0.101056,0.0505 -0.234095,0.0988 -0.399459,0.1447 v 0.33744 h 2.811201 v -0.33744 c -0.220489,-0.0459 -0.381088,-0.0963 -0.482144,-0.15142 -0.09646,-0.0551 -0.172255,-0.12666 -0.227376,-0.21394 -0.05053,-0.0827 -0.08762,-0.19717 -0.110588,-0.34416 -0.01837,-0.14699 -0.02739,-0.37012 -0.02739,-0.66869 v -1.45366 c 0.229672,0.0965 0.482486,0.17225 0.758093,0.22737 0.275603,0.0597 0.583023,0.0894 0.922943,0.0894 0.60633,0 1.12787,-0.12827 1.56424,-0.3855 0.44098,-0.26183 0.77647,-0.65032 1.00614,-1.16479 0.22968,-0.51906 0.34417,-1.15721 0.34417,-1.91513 0,-1.09324 -0.20407,-1.92271 -0.61288,-2.4877 -0.40423,-0.56959 -0.98565,-0.85421 -1.74357,-0.85421 z m 22.74487,0.0481 -1.60559,0.062 v 0.36535 c 0.20671,0.0368 0.36518,0.0829 0.47543,0.13798 0.11483,0.0505 0.19964,0.13057 0.25476,0.24081 0.0551,0.10565 0.0875,0.24822 0.0966,0.42736 0.009,0.17915 0.014,0.41554 0.014,0.70952 v 3.00447 c 0,0.32154 -0.0164,0.55793 -0.0486,0.70952 -0.0276,0.15158 -0.0689,0.26395 -0.12402,0.33744 -0.0505,0.0735 -0.11467,0.13126 -0.19275,0.1726 -0.0735,0.0413 -0.19965,0.0896 -0.37879,0.1447 v 0.33744 h 2.70061 v -0.33744 c -0.23427,-0.0597 -0.40388,-0.12862 -0.50953,-0.20671 -0.10106,-0.0827 -0.16996,-0.19981 -0.20671,-0.3514 -0.0367,-0.15618 -0.0553,-0.43178 -0.0553,-0.82682 v -4.92683 z m -31.261143,0.48937 c 0.330729,0 0.624884,0.10548 0.882117,0.31678 0.257233,0.20671 0.459174,0.53319 0.606165,0.97875 0.151583,0.44557 0.227376,1.0058 0.227376,1.68104 0,0.36288 -0.02969,0.71215 -0.0894,1.04748 -0.05971,0.33073 -0.158303,0.62224 -0.296106,0.87488 -0.13321,0.25264 -0.308107,0.45458 -0.523999,0.60616 -0.215893,0.14699 -0.477721,0.22066 -0.785482,0.22066 -0.560401,0 -0.991844,-0.25281 -1.295012,-0.75809 -0.298574,-0.50987 -0.448034,-1.2376 -0.448034,-2.18385 0,-0.89113 0.146819,-1.57802 0.4408,-2.06034 0.298574,-0.48231 0.725768,-0.72347 1.281575,-0.72347 z m 15.227493,0 c 0.31236,0 0.56517,0.0848 0.7581,0.25477 0.19292,0.16536 0.33761,0.40652 0.43408,0.72347 0.0965,0.31235 0.15847,0.71675 0.18603,1.21284 h -3.01118 c 0.0505,-0.70279 0.21589,-1.24236 0.49609,-1.61902 0.28479,-0.38126 0.66376,-0.57206 1.13688,-0.57206 z m 21.41472,0 c 0.31235,0 0.56516,0.0848 0.75809,0.25477 0.19292,0.16536 0.33762,0.40652 0.43408,0.72347 0.0965,0.31235 0.15848,0.71675 0.18604,1.21284 h -3.01119 c 0.0505,-0.70279 0.21589,-1.24236 0.49609,-1.61902 0.2848,-0.38126 0.66376,-0.57206 1.13689,-0.57206 z m -28.6427,0.28939 c 1.0519,0 1.5782,0.90049 1.5782,2.70113 0,0.90031 -0.14045,1.58245 -0.42065,2.04638 -0.2802,0.45935 -0.69786,0.68885 -1.25367,0.68885 -0.31235,0 -0.56517,-0.0366 -0.75809,-0.11007 -0.188334,-0.0735 -0.353699,-0.18374 -0.496096,-0.33073 -0.137804,-0.15158 -0.234267,-0.34715 -0.289388,-0.58601 -0.05512,-0.23886 -0.08268,-0.5786 -0.08268,-1.01957 v -1.81902 c 0,-0.19292 0.03657,-0.37207 0.11007,-0.53743 0.07809,-0.16996 0.209003,-0.34434 0.392741,-0.52348 0.183738,-0.17915 0.367655,-0.30794 0.551385,-0.38603 0.18833,-0.0827 0.41095,-0.12402 0.66818,-0.12402 z"
       inkscape:export-filename="logo_bottom_text.svg"
       inkscape:export-xdpi="96"
       inkscape:export-ydpi="96" /><path
       id="path29"
       style="fill:url(#linearGradient30);stroke:#000000;stroke-width:0;stroke-linecap:round;stroke-dasharray:none"
       d="M 0.88045067,89.167363 -31.012022,121.05984 -19.962513,118.0988 v 14.25736 c 0,0 13.5190237,-3.16565 20.40207067,-3.18734 6.88568303,-0.0217 19.85880833,2.87096 20.90964533,3.10752 0.02636,0.006 0.21195,0.0452 0.222636,0.0476 0.0071,0.001 0.147947,0.0322 0.147947,0.0322 v -0.0652 -14.18412 l 11.064894,2.96471 -9.915048,-9.91505 z M 39.7211,94.304318 25.875343,108.14934 l 0.09297,0.093 c 3.590866,4.72324 6.385024,9.12259 9.958245,13.7337 0.165294,0.2133 0.728341,0.80243 0.623266,1.03706 -0.09722,0.21712 -1.188311,0.0317 -1.472824,0.01 -3.049263,-0.22979 -5.997887,-0.54047 -9.148965,-0.94624 l -0.104735,-0.0359 0.149406,9.34452 c 4.014044,-0.80523 9.722131,-1.80999 13.360192,-1.82144 6.322353,-0.0198 18.757858,2.80943 18.757858,2.80943 v -12.56043 l 9.753181,2.6139 z"
       inkscape:export-filename="logo_no_text.svg"
       inkscape:export-xdpi="96"
       inkscape:export-ydpi="96" /></g></svg>
